<svg xmlns="http://www.w3.org/2000/svg" viewBox="0 0 32.8 46.01"><defs><style>.a{fill:none;stroke:#000;stroke-miterlimit:10;stroke-width:2px;}</style></defs><title>Asset 1</title><line class="a" x1="26.28" y1="23.24" x2="32.28" y2="23.24"/><path d="M15.85,33.78l-.12,0a4.85,4.85,0,0,1-3.09-1.95,6.46,6.46,0,0,1-1.11-3.87,6.44,6.44,0,0,1,1.12-3.89,4.9,4.9,0,0,1,3.12-1.94l.12,0a6.59,6.59,0,0,1,1.19-.1,6,6,0,0,1,1.2.11l.11,0a3.93,3.93,0,0,1,2.26,1.33V22h2V33.9h-2V32.44a4,4,0,0,1-2.22,1.32l-.14,0a6,6,0,0,1-1.21.12A6.11,6.11,0,0,1,15.85,33.78Zm-2.34-5.84a4.29,4.29,0,0,0,.91,2.95,3.38,3.38,0,0,0,2.66,1,3.33,3.33,0,0,0,2.64-1A4.22,4.22,0,0,0,20.65,28v0A4.25,4.25,0,0,0,19.72,25a3.36,3.36,0,0,0-2.64-1,3.41,3.41,0,0,0-2.66,1A4.32,4.32,0,0,0,13.51,27.94Z" transform="translate(-0.93 -5.29)"/><path d="M2.57,51.3V42H.93V40.11H2.57A5.74,5.74,0,0,1,3.94,36.2,4.81,4.81,0,0,1,7.5,34.62v1.86a3,3,0,0,0-2.26,1,4,4,0,0,0-.82,2.61h1.5V42H4.42V51.3Z" transform="translate(-0.93 -5.29)"/><path d="M11.72,34.62V51.3H9.86V34.62Z" transform="translate(-0.93 -5.29)"/><path d="M19,51.2l-.12,0a4.54,4.54,0,0,1-2.9-1.83,6,6,0,0,1-1-3.63,6.06,6.06,0,0,1,1-3.65,4.59,4.59,0,0,1,2.93-1.82l.11,0a6.77,6.77,0,0,1,1.12-.09,5.91,5.91,0,0,1,1.12.11l.11,0a3.67,3.67,0,0,1,2.12,1.24V40.12h1.86V51.3H23.45V49.93a3.65,3.65,0,0,1-2.09,1.24l-.13,0a5.94,5.94,0,0,1-1.13.1A6,6,0,0,1,19,51.2Zm-2.21-5.49a4,4,0,0,0,.86,2.77,3.2,3.2,0,0,0,2.5,1,3.15,3.15,0,0,0,2.48-1,4,4,0,0,0,.87-2.76v0a4,4,0,0,0-.87-2.76,3.15,3.15,0,0,0-2.48-1,3.2,3.2,0,0,0-2.5,1A4.06,4.06,0,0,0,16.74,45.71Z" transform="translate(-0.93 -5.29)"/><path d="M30.18,42.2,28.47,42V40.16l1.71.19v-4H32v4l1.7-.19V42l-1.7.2v5.7c0,1,.45,1.54,1.34,1.54h.35V51.3h-.35a3,3,0,0,1-2.32-.94,3.42,3.42,0,0,1-.88-2.46V42.2Z" transform="translate(-0.93 -5.29)"/><path d="M2.79,20.21H.93V9H2.79V10.4A3.76,3.76,0,0,1,4.88,9.16l.13,0A7.33,7.33,0,0,1,5.86,9V10.9a3.08,3.08,0,0,0-2.21,1,3.87,3.87,0,0,0-.86,2.48Z" transform="translate(-0.93 -5.29)"/><path d="M16.47,15.38H8c0,.15,0,.26,0,.35a3.33,3.33,0,0,0,.9,1.76,3.36,3.36,0,0,0,2.48.86A4.51,4.51,0,0,0,13.25,18a2.78,2.78,0,0,0,1.24-1l1.67.81a4.54,4.54,0,0,1-1.92,1.81,6.25,6.25,0,0,1-2.87.65,5.1,5.1,0,0,1-3.85-1.5,5.6,5.6,0,0,1-1.48-4v-.09a5.74,5.74,0,0,1,1.42-4.08A4.94,4.94,0,0,1,11.25,9a5.13,5.13,0,0,1,3.44,1.16,5.11,5.11,0,0,1,1.68,3.23,8,8,0,0,1,.1,1.1Zm-1.95-1.73a1.12,1.12,0,0,0,0-.27l0-.08a3,3,0,0,0-3.22-2.42,3.23,3.23,0,0,0-2.33.8A3.12,3.12,0,0,0,8,13.3c0,.1,0,.22-.06.35Z" transform="translate(-0.93 -5.29)"/><path d="M20.18,20.21H18.32V9h1.86v1a3,3,0,0,1,.74-.55,5.06,5.06,0,0,1,4.3,0,4.32,4.32,0,0,1,1.91,2,6.9,6.9,0,0,1,.68,3.15v5.59H26V14.62a4.49,4.49,0,0,0-.75-2.78,2.55,2.55,0,0,0-2.14-1,2.59,2.59,0,0,0-2.09.89,4.2,4.2,0,0,0-.8,2.57Z" transform="translate(-0.93 -5.29)"/><path d="M30.18,11.11l-1.71-.2V9.07l1.71.19v-4H32v4l1.71-.19v1.84l-1.71.2v5.7c0,1,.45,1.54,1.35,1.54h.35v1.86h-.35a3,3,0,0,1-2.32-.94,3.42,3.42,0,0,1-.89-2.46v-.62l0-.27Z" transform="translate(-0.93 -5.29)"/><line class="a" x1="0.28" y1="23.24" x2="6.28" y2="23.24"/></svg>