<svg xmlns="http://www.w3.org/2000/svg" viewBox="0 0 230.52 164.52"><defs><style>.a{fill:#fafafa;}.b{fill:#f3f3f3;}.c{fill:#babcbc;}.d{fill:#dfdfdf;}.e{fill:#cacccc;}</style></defs><title>Image placeholder</title><path class="a" d="M136.67,39.48l12.4-10.92c1-.91,2.07-1.82,3.15-2.68,3.37-2.67,3.45-2.73,6.45.46Q174.44,43.14,190.12,60c6.64,7.14,13.23,14.33,19.85,21.49s13.35,14.46,20,21.7a7.22,7.22,0,0,1,.53,1.07H63.64c5.66-5.19,11.26-10.46,17-15.55,10.21-9,20.52-18,30.74-27,1-.86,2.61-1.21,2.64-3a2,2,0,0,0,1.7-.73Q126.19,48.76,136.67,39.48Z"/><path class="b" d="M114,58.79c0,1.74-1.68,2.09-2.64,3-10.22,9-20.53,17.95-30.74,27-5.75,5.09-11.35,10.36-17,15.55H0c3.26-5,6.24-9.58,9.26-14.15q12.54-19,25.11-38,15.51-23.51,31-47c.65-1,1.37-2,2.09-2.92,2.18-2.92,2.25-3,4.55.11,8,10.57,15.82,21.21,23.83,31.75,1.46,1.92,2.39,4.38,4.79,5.5,0,1.61,1.19,2.62,2,3.79Q108.34,51.08,114,58.79Z"/><path class="c" d="M114,58.79q-5.69-7.73-11.36-15.45c-.85-1.17-2-2.18-2-3.79,1.81-3.84,3.94-7.33,7.47-10a18.45,18.45,0,0,1,24.84,2.82c1.71,1.94,4,4,3.73,7.09q-10.47,9.29-20.94,18.58A2,2,0,0,1,114,58.79Z"/><path class="a" d="M116.93,164.51c-2.92,0-5.84,0-8.76,0-.49,0-1.26.17-1.2-.66,0-.63.7-.52,1.15-.52h17.73c.46,0,1.13-.05,1.12.58s-.77.61-1.27.61C122.78,164.52,119.85,164.51,116.93,164.51Z"/><path class="b" d="M116.91,150c-5.11,0-10.23,0-15.34,0-.85,0-2.19.3-2.1-1.16.07-1.1,1.23-.91,2-.91q15.51,0,31,0c.8,0,2-.1,1.94,1,0,1.35-1.33,1.07-2.22,1.08C127.13,150,122,150,116.91,150Z"/><path class="d" d="M116.88,135.41c-7.3,0-14.6,0-21.9,0-1.22,0-3.14.43-3-1.65.1-1.58,1.76-1.31,2.89-1.31q22.15,0,44.32,0c1.15,0,2.82-.14,2.78,1.43,0,1.93-1.9,1.54-3.17,1.54C131.49,135.44,124.19,135.41,116.88,135.41Z"/><path class="e" d="M116.86,120.86c-9.49,0-19,0-28.48,0-1.59,0-4.08.56-3.91-2.15.13-2,2.29-1.69,3.75-1.7q28.82,0,57.63,0c1.49,0,3.66-.18,3.61,1.86-.05,2.51-2.48,2-4.12,2C135.85,120.89,126.35,120.86,116.86,120.86Z"/></svg>