<svg xmlns="http://www.w3.org/2000/svg" viewBox="0 0 230.95 104.54"><defs><style>.a{fill:#fafafa;}.a,.b,.c{stroke:#b3b3b3;stroke-miterlimit:10;stroke-width:0.25px;}.b{fill:#f3f3f3;}.c{fill:#babcbc;}</style></defs><title>Asset 3</title><path class="a" d="M136.9,39.61l12.41-10.93c1-.9,2.06-1.82,3.14-2.67,3.37-2.67,3.45-2.73,6.45.45q15.76,16.82,31.45,33.7C197,67.3,203.58,74.48,210.2,81.65s13.35,14.46,20,21.7a6.43,6.43,0,0,1,.53,1.06H63.87c5.66-5.19,11.26-10.45,17-15.55,10.21-9,20.52-18,30.74-27,1-.85,2.61-1.21,2.64-2.94a2,2,0,0,0,1.7-.74Z"/><path class="b" d="M114.26,58.92c0,1.73-1.68,2.09-2.64,2.94-10.22,9-20.53,18-30.74,27-5.75,5.1-11.35,10.36-17,15.55H.23c3.26-5,6.24-9.57,9.26-14.14q12.54-19,25.11-38,15.51-23.52,31-47c.65-1,1.37-2,2.09-2.91,2.18-2.92,2.25-3,4.56.1C80.2,13,88.06,23.64,96.07,34.18c1.46,1.92,2.39,4.37,4.8,5.49,0,1.61,1.18,2.63,2,3.79Q108.57,51.2,114.26,58.92Z"/><path class="c" d="M114.26,58.92q-5.69-7.72-11.36-15.46c-.85-1.16-2-2.18-2-3.79,1.8-3.83,3.93-7.32,7.46-10a18.45,18.45,0,0,1,24.84,2.81c1.71,1.94,4,4,3.73,7.1L116,58.18A2,2,0,0,1,114.26,58.92Z"/></svg>