<svg xmlns="http://www.w3.org/2000/svg" viewBox="0 0 141.26 45.86"><defs><style>.a{fill:#ff5a5f;}</style></defs><title>logo</title><path class="a" d="M38.3,49.25a19.24,19.24,0,0,1-2.77,5.15,18.62,18.62,0,0,1-4.14,4,19.4,19.4,0,0,1-5.22,2.63A18.73,18.73,0,0,1,20.3,62a18.12,18.12,0,0,1-7.23-1.47,19.8,19.8,0,0,1-6-4,18.65,18.65,0,0,1-4.11-6A18.42,18.42,0,0,1,3,35.93a20.06,20.06,0,0,1,4.11-6.09,19.65,19.65,0,0,1,6-4.17,18,18,0,0,1,7.42-1.55,18.22,18.22,0,0,1,5.94,1,18.59,18.59,0,0,1,5.15,2.7,20.38,20.38,0,0,1,4.1,4.14,21.33,21.33,0,0,1,2.88,5.29h-7.2a11.7,11.7,0,0,0-4.5-4.75,12.29,12.29,0,0,0-6.37-1.73,11.88,11.88,0,0,0-4.72,1,13.16,13.16,0,0,0-4,2.62A12.72,12.72,0,0,0,9,38.3a11.87,11.87,0,0,0-.11,9.51,12,12,0,0,0,2.63,3.92,12.94,12.94,0,0,0,3.92,2.7,11.63,11.63,0,0,0,4.82,1,12.45,12.45,0,0,0,6.23-1.69,12.42,12.42,0,0,0,4.65-4.5Z" transform="translate(-1.44 -23.9)"/><path class="a" d="M59.69,62a18.48,18.48,0,0,1-7.45-1.51,20,20,0,0,1-6.12-4.1A19.05,19.05,0,0,1,42,50.33a18.68,18.68,0,0,1,0-14.76,18.94,18.94,0,0,1,4.14-6.05,19.64,19.64,0,0,1,6.12-4.1,18.85,18.85,0,0,1,14.83,0,19.23,19.23,0,0,1,6.08,4.1,19.52,19.52,0,0,1,4.11,6.05,18.79,18.79,0,0,1,0,14.76A19.35,19.35,0,0,1,67.07,60.48,18.35,18.35,0,0,1,59.69,62Zm0-31.32a12.64,12.64,0,0,0-4.9,1,12.55,12.55,0,0,0-6.69,6.52,12,12,0,0,0,0,9.65,13.06,13.06,0,0,0,2.7,3.92,12.37,12.37,0,0,0,4,2.67,12.64,12.64,0,0,0,4.9,1,12.33,12.33,0,0,0,4.86-1,12.55,12.55,0,0,0,6.62-6.59,12.49,12.49,0,0,0,0-9.65,12.24,12.24,0,0,0-2.66-3.89,13,13,0,0,0-4-2.63A12.33,12.33,0,0,0,59.69,30.67Z" transform="translate(-1.44 -23.9)"/><path class="a" d="M87.19,34.27a3.52,3.52,0,0,0,1.73,3.17A15.58,15.58,0,0,0,93.2,39.2q2.56.69,5.55,1.26a25.07,25.07,0,0,1,5.54,1.73,12.22,12.22,0,0,1,4.29,3.17,8.13,8.13,0,0,1,1.72,5.47,9.78,9.78,0,0,1-1.22,5,11,11,0,0,1-3.2,3.53,13.91,13.91,0,0,1-4.58,2.09,20.28,20.28,0,0,1-5.25.68,20.78,20.78,0,0,1-5.69-.79,17.06,17.06,0,0,1-5-2.3,12,12,0,0,1-3.6-3.78A10.07,10.07,0,0,1,80.35,50a5.25,5.25,0,0,1,0-.65c0-.24,0-.55,0-.94h6a2.36,2.36,0,0,0-.07.58v.58a5.06,5.06,0,0,0,.86,2.91,7.13,7.13,0,0,0,2.24,2.09,11.26,11.26,0,0,0,3.09,1.26,14.4,14.4,0,0,0,3.53.43,12.37,12.37,0,0,0,3-.36,9.84,9.84,0,0,0,2.56-1,5.9,5.9,0,0,0,1.8-1.58,3.52,3.52,0,0,0,.68-2.16,3.15,3.15,0,0,0-1.69-2.92,16.49,16.49,0,0,0-4.21-1.58c-1.68-.41-3.5-.8-5.47-1.19a23.05,23.05,0,0,1-5.47-1.76,12.13,12.13,0,0,1-4.22-3.24,8.67,8.67,0,0,1-1.69-5.65A10.11,10.11,0,0,1,82.51,30a9.87,9.87,0,0,1,2.88-3.39,13.07,13.07,0,0,1,4.14-2,17.09,17.09,0,0,1,4.86-.69,18.53,18.53,0,0,1,5.37.8A14.85,14.85,0,0,1,104.47,27a11.31,11.31,0,0,1,4.61,9.39v1.23h-5.83c0-.24.08-.48.11-.72s0-.48,0-.73a5.63,5.63,0,0,0-.72-2.84,6.35,6.35,0,0,0-1.94-2.09A9.6,9.6,0,0,0,98,30a12.24,12.24,0,0,0-3.21-.43,9.81,9.81,0,0,0-5.22,1.3A4.45,4.45,0,0,0,87.19,34.27Z" transform="translate(-1.44 -23.9)"/><path class="a" d="M142.7,25.13a40.88,40.88,0,0,0-3.7,8.31q-1.56,4.73-3.1,9.69t-3.35,9.72a37.31,37.31,0,0,1-4.5,8.53,21.34,21.34,0,0,1-6.59,6.08,18.43,18.43,0,0,1-9.57,2.31h-1.23V63.5a22.87,22.87,0,0,0,5.55-.57A11.69,11.69,0,0,0,120,61.24a11.51,11.51,0,0,0,2.74-2.7,34.38,34.38,0,0,0,2.3-3.66L109.94,25.13h6.84l11.6,22.53q.85-2.73,1.62-5.47t1.69-5.51c.62-1.84,1.32-3.73,2.09-5.65a53,53,0,0,1,2.8-5.9Z" transform="translate(-1.44 -23.9)"/></svg>
